G04*
G04 #@! TF.GenerationSoftware,Altium Limited,Altium Designer,23.8.1 (32)*
G04*
G04 Layer_Color=8421504*
%FSLAX44Y44*%
%MOMM*%
G71*
G04*
G04 #@! TF.SameCoordinates,3649A920-1244-4C6D-8A34-14C6D8039F49*
G04*
G04*
G04 #@! TF.FilePolarity,Positive*
G04*
G01*
G75*
%ADD10R,1.7076X1.7076*%
%ADD11R,1.7076X1.7076*%
%ADD12R,1.7076X1.7076*%
%ADD13R,3.0000X3.0000*%
%ADD14R,0.5000X0.5000*%
%ADD15R,0.5000X0.5000*%
%ADD16R,0.7500X0.8500*%
%ADD17R,0.4725X0.5153*%
%ADD18R,0.8121X0.7581*%
%ADD19R,0.7561X0.1925*%
G04:AMPARAMS|DCode=20|XSize=0.7561mm|YSize=0.1925mm|CornerRadius=0.0962mm|HoleSize=0mm|Usage=FLASHONLY|Rotation=180.000|XOffset=0mm|YOffset=0mm|HoleType=Round|Shape=RoundedRectangle|*
%AMROUNDEDRECTD20*
21,1,0.7561,0.0000,0,0,180.0*
21,1,0.5636,0.1925,0,0,180.0*
1,1,0.1925,-0.2818,0.0000*
1,1,0.1925,0.2818,0.0000*
1,1,0.1925,0.2818,0.0000*
1,1,0.1925,-0.2818,0.0000*
%
%ADD20ROUNDEDRECTD20*%
G04:AMPARAMS|DCode=21|XSize=0.1925mm|YSize=0.7561mm|CornerRadius=0.0962mm|HoleSize=0mm|Usage=FLASHONLY|Rotation=180.000|XOffset=0mm|YOffset=0mm|HoleType=Round|Shape=RoundedRectangle|*
%AMROUNDEDRECTD21*
21,1,0.1925,0.5636,0,0,180.0*
21,1,0.0000,0.7561,0,0,180.0*
1,1,0.1925,0.0000,0.2818*
1,1,0.1925,0.0000,0.2818*
1,1,0.1925,0.0000,-0.2818*
1,1,0.1925,0.0000,-0.2818*
%
%ADD21ROUNDEDRECTD21*%
%ADD22R,0.5153X0.4725*%
%ADD23R,0.7581X0.8121*%
%ADD24R,0.1925X0.7561*%
G04:AMPARAMS|DCode=25|XSize=0.7561mm|YSize=0.1925mm|CornerRadius=0.0962mm|HoleSize=0mm|Usage=FLASHONLY|Rotation=90.000|XOffset=0mm|YOffset=0mm|HoleType=Round|Shape=RoundedRectangle|*
%AMROUNDEDRECTD25*
21,1,0.7561,0.0000,0,0,90.0*
21,1,0.5636,0.1925,0,0,90.0*
1,1,0.1925,0.0000,0.2818*
1,1,0.1925,0.0000,-0.2818*
1,1,0.1925,0.0000,-0.2818*
1,1,0.1925,0.0000,0.2818*
%
%ADD25ROUNDEDRECTD25*%
G04:AMPARAMS|DCode=26|XSize=0.1925mm|YSize=0.7561mm|CornerRadius=0.0962mm|HoleSize=0mm|Usage=FLASHONLY|Rotation=90.000|XOffset=0mm|YOffset=0mm|HoleType=Round|Shape=RoundedRectangle|*
%AMROUNDEDRECTD26*
21,1,0.1925,0.5636,0,0,90.0*
21,1,0.0000,0.7561,0,0,90.0*
1,1,0.1925,0.2818,0.0000*
1,1,0.1925,0.2818,0.0000*
1,1,0.1925,-0.2818,0.0000*
1,1,0.1925,-0.2818,0.0000*
%
%ADD26ROUNDEDRECTD26*%
%ADD27R,0.8500X0.7500*%
G04:AMPARAMS|DCode=28|XSize=1.2544mm|YSize=0.5321mm|CornerRadius=0.2661mm|HoleSize=0mm|Usage=FLASHONLY|Rotation=270.000|XOffset=0mm|YOffset=0mm|HoleType=Round|Shape=RoundedRectangle|*
%AMROUNDEDRECTD28*
21,1,1.2544,0.0000,0,0,270.0*
21,1,0.7223,0.5321,0,0,270.0*
1,1,0.5321,0.0000,-0.3611*
1,1,0.5321,0.0000,0.3611*
1,1,0.5321,0.0000,0.3611*
1,1,0.5321,0.0000,-0.3611*
%
%ADD28ROUNDEDRECTD28*%
%ADD29R,0.5321X1.2544*%
G04:AMPARAMS|DCode=30|XSize=1.2544mm|YSize=0.5321mm|CornerRadius=0.2661mm|HoleSize=0mm|Usage=FLASHONLY|Rotation=180.000|XOffset=0mm|YOffset=0mm|HoleType=Round|Shape=RoundedRectangle|*
%AMROUNDEDRECTD30*
21,1,1.2544,0.0000,0,0,180.0*
21,1,0.7223,0.5321,0,0,180.0*
1,1,0.5321,-0.3611,0.0000*
1,1,0.5321,0.3611,0.0000*
1,1,0.5321,0.3611,0.0000*
1,1,0.5321,-0.3611,0.0000*
%
%ADD30ROUNDEDRECTD30*%
%ADD31R,1.2544X0.5321*%
D10*
X750000Y427500D02*
D03*
X105000Y427500D02*
D03*
D11*
X427500Y105000D02*
D03*
D12*
Y750000D02*
D03*
D13*
X292500Y562500D02*
D03*
D14*
X402500Y280000D02*
D03*
X352500D02*
D03*
X492500D02*
D03*
X392500D02*
D03*
X382500D02*
D03*
X362500D02*
D03*
X442500D02*
D03*
X372500D02*
D03*
X462500D02*
D03*
X432500D02*
D03*
X452500D02*
D03*
X422500D02*
D03*
X472500D02*
D03*
X412500D02*
D03*
X482500D02*
D03*
X502500D02*
D03*
X452500Y575000D02*
D03*
X502500D02*
D03*
X362500D02*
D03*
X462500D02*
D03*
X472500D02*
D03*
X492500D02*
D03*
X412500D02*
D03*
X482500D02*
D03*
X392500D02*
D03*
X422500D02*
D03*
X402500D02*
D03*
X432500D02*
D03*
X382500D02*
D03*
X442500D02*
D03*
X372500D02*
D03*
X352500D02*
D03*
D15*
X575000Y402500D02*
D03*
Y352500D02*
D03*
Y492500D02*
D03*
Y392500D02*
D03*
Y382500D02*
D03*
Y362500D02*
D03*
Y442500D02*
D03*
Y372500D02*
D03*
Y462500D02*
D03*
Y432500D02*
D03*
Y452500D02*
D03*
Y422500D02*
D03*
Y472500D02*
D03*
Y412500D02*
D03*
Y482500D02*
D03*
Y502500D02*
D03*
X280000Y452500D02*
D03*
Y502500D02*
D03*
Y362500D02*
D03*
Y462500D02*
D03*
Y472500D02*
D03*
Y492500D02*
D03*
Y412500D02*
D03*
Y482500D02*
D03*
Y392500D02*
D03*
Y422500D02*
D03*
Y402500D02*
D03*
Y432500D02*
D03*
Y382500D02*
D03*
Y442500D02*
D03*
Y372500D02*
D03*
Y352500D02*
D03*
D16*
X708750Y409000D02*
D03*
X721250D02*
D03*
X146750Y446500D02*
D03*
X134250D02*
D03*
X114250Y727500D02*
D03*
X101750D02*
D03*
X773750Y740000D02*
D03*
X786250D02*
D03*
D17*
X779000Y413286D02*
D03*
Y405714D02*
D03*
X76500Y440214D02*
D03*
Y447786D02*
D03*
D18*
X790000Y413770D02*
D03*
Y401230D02*
D03*
X65500Y440730D02*
D03*
Y453270D02*
D03*
D19*
X768780Y415500D02*
D03*
X86220Y439500D02*
D03*
D20*
X768780Y419500D02*
D03*
Y423500D02*
D03*
Y427500D02*
D03*
Y431500D02*
D03*
Y435500D02*
D03*
Y439500D02*
D03*
X731220D02*
D03*
Y435500D02*
D03*
Y431500D02*
D03*
Y427500D02*
D03*
Y423500D02*
D03*
Y419500D02*
D03*
Y415500D02*
D03*
X86220Y435500D02*
D03*
Y431500D02*
D03*
Y427500D02*
D03*
Y423500D02*
D03*
Y419500D02*
D03*
Y415500D02*
D03*
X123780D02*
D03*
Y419500D02*
D03*
Y423500D02*
D03*
Y427500D02*
D03*
Y431500D02*
D03*
Y435500D02*
D03*
Y439500D02*
D03*
D21*
X762000Y446280D02*
D03*
X758000D02*
D03*
X754000D02*
D03*
X750000D02*
D03*
X746000D02*
D03*
X742000D02*
D03*
X738000D02*
D03*
Y408720D02*
D03*
X742000D02*
D03*
X746000D02*
D03*
X750000D02*
D03*
X754000D02*
D03*
X758000D02*
D03*
X762000D02*
D03*
X93000Y408720D02*
D03*
X97000D02*
D03*
X101000D02*
D03*
X105000D02*
D03*
X109000D02*
D03*
X113000D02*
D03*
X117000D02*
D03*
Y446280D02*
D03*
X113000D02*
D03*
X109000D02*
D03*
X105000D02*
D03*
X101000D02*
D03*
X97000D02*
D03*
X93000D02*
D03*
D22*
X414286Y77000D02*
D03*
X406714D02*
D03*
X444786Y777000D02*
D03*
X437214D02*
D03*
D23*
X413770Y66500D02*
D03*
X401230D02*
D03*
X450270Y787000D02*
D03*
X437730D02*
D03*
D24*
X415500Y86220D02*
D03*
X439500Y768780D02*
D03*
D25*
X419500Y86220D02*
D03*
X423500D02*
D03*
X427500D02*
D03*
X431500D02*
D03*
X435500D02*
D03*
X439500D02*
D03*
Y123780D02*
D03*
X435500D02*
D03*
X431500D02*
D03*
X427500D02*
D03*
X423500D02*
D03*
X419500D02*
D03*
X415500D02*
D03*
X439500Y731220D02*
D03*
X435500D02*
D03*
X431500D02*
D03*
X427500D02*
D03*
X423500D02*
D03*
X419500D02*
D03*
X415500D02*
D03*
Y768780D02*
D03*
X419500D02*
D03*
X423500D02*
D03*
X427500D02*
D03*
X431500D02*
D03*
X435500D02*
D03*
D26*
X446280Y93000D02*
D03*
Y97000D02*
D03*
Y101000D02*
D03*
Y105000D02*
D03*
Y109000D02*
D03*
Y113000D02*
D03*
Y117000D02*
D03*
X408720D02*
D03*
Y113000D02*
D03*
Y109000D02*
D03*
Y105000D02*
D03*
Y101000D02*
D03*
Y97000D02*
D03*
Y93000D02*
D03*
X446280Y762000D02*
D03*
Y758000D02*
D03*
Y754000D02*
D03*
Y750000D02*
D03*
Y746000D02*
D03*
Y742000D02*
D03*
Y738000D02*
D03*
X408720D02*
D03*
Y742000D02*
D03*
Y746000D02*
D03*
Y750000D02*
D03*
Y754000D02*
D03*
Y758000D02*
D03*
Y762000D02*
D03*
D27*
X408500Y147000D02*
D03*
Y134500D02*
D03*
X447000Y708750D02*
D03*
Y721250D02*
D03*
X115000Y773750D02*
D03*
Y786250D02*
D03*
X726000Y740750D02*
D03*
Y753250D02*
D03*
D28*
X114500Y739497D02*
D03*
X95500D02*
D03*
Y760503D02*
D03*
X105000D02*
D03*
D29*
X114500D02*
D03*
D30*
X739497Y740500D02*
D03*
Y759500D02*
D03*
X760503D02*
D03*
Y750000D02*
D03*
D31*
Y740500D02*
D03*
M02*
